<svg width="50" height="51" viewBox="0 0 50 51" fill="none" xmlns="http://www.w3.org/2000/svg">
<g clip-path="url(#clip0_402_942)">
<path d="M25 50.9091C38.8071 50.9091 50 39.7162 50 25.9091C50 12.1019 38.8071 0.909058 25 0.909058C11.1929 0.909058 0 12.1019 0 25.9091C0 39.7162 11.1929 50.9091 25 50.9091Z" fill="#F0F0F0"/>
<path d="M25 50.909C34.9114 50.909 43.4756 45.141 47.5193 36.7786H2.48065C6.5244 45.141 15.0885 50.909 25 50.909Z" fill="#338AF3"/>
<path d="M25 0.909058C15.0885 0.909058 6.5244 6.67712 2.48065 15.0395H47.5192C43.4756 6.67712 34.9114 0.909058 25 0.909058V0.909058Z" fill="#338AF3"/>
<path d="M15.3853 17.2134L16.1946 19.7046H18.8139L16.6949 21.244L17.5044 23.7351L15.3853 22.1956L13.2661 23.7351L14.0756 21.244L11.9565 19.7046H14.5758L15.3853 17.2134Z" fill="#338AF3"/>
<path d="M15.3853 28.083L16.1946 30.5742H18.8139L16.6949 32.1137L17.5044 34.6047L15.3853 33.0651L13.2661 34.6047L14.0756 32.1137L11.9565 30.5742H14.5758L15.3853 28.083Z" fill="#338AF3"/>
<path d="M34.6147 17.2134L35.4242 19.7046H38.0435L35.9244 21.244L36.7339 23.7351L34.6147 22.1956L32.4956 23.7351L33.3051 21.244L31.186 19.7046H33.8054L34.6147 17.2134Z" fill="#338AF3"/>
<path d="M34.6147 28.083L35.4242 30.5742H38.0435L35.9244 32.1137L36.7339 34.6047L34.6147 33.0651L32.4956 34.6047L33.3051 32.1137L31.186 30.5742H33.8054L34.6147 28.083Z" fill="#338AF3"/>
<path d="M25 22.6482L25.8095 25.1394H28.4287L26.3097 26.6789L27.1191 29.1699L25 27.6303L22.8809 29.1699L23.6903 26.6789L21.5713 25.1394H24.1905L25 22.6482Z" fill="#338AF3"/>
</g>
<defs>
<clipPath id="clip0_402_942">
<rect width="50" height="50" fill="white" transform="translate(0 0.909058)"/>
</clipPath>
</defs>
</svg>
