<svg width="50" height="51" viewBox="0 0 50 51" fill="none" xmlns="http://www.w3.org/2000/svg">
<g clip-path="url(#clip0_402_963)">
<path d="M50 25.8182C50 39.6252 38.807 50.8182 25 50.8182C11.193 50.8182 0 39.6252 0 25.8182C0 25.8241 25 0.820911 25 0.818176C38.807 0.818176 50 12.0111 50 25.8182Z" fill="#0052B4"/>
<path d="M24.9331 25.8182H25C25 25.7957 25 25.7738 25 25.7513C24.9777 25.7736 24.9555 25.7959 24.9331 25.8182Z" fill="#F0F0F0"/>
<path d="M25 13.8616C25 9.46271 25 6.58038 25 0.818176H24.9958C11.1905 0.82052 0 12.0124 0 25.8182H13.0435V18.4734L20.3883 25.8182H24.9332C24.9555 25.7959 24.9777 25.7736 25.0001 25.7513C25.0001 24.067 25.0001 22.5642 25.0001 21.2067L17.6551 13.8616H25Z" fill="#F0F0F0"/>
<path d="M12.6479 4.07904C8.73788 6.30551 5.4872 9.55609 3.26083 13.4661V25.8182H9.78261V10.601V10.6008H25C25 8.54388 25 6.58431 25 4.07904H12.6479Z" fill="#D80027"/>
<path d="M25 22.7439L16.1177 13.8618H13.0435V13.862L24.9998 25.8182H25C25 25.8182 25 23.6984 25 22.7439V22.7439Z" fill="#D80027"/>
<path d="M33.6956 25.8182L34.1583 27.2416H35.6549L34.4441 28.1213L34.9066 29.5448L33.6956 28.6651L32.4848 29.5448L32.9473 28.1213L31.7365 27.2416H33.2331L33.6956 25.8182Z" fill="#F0F0F0"/>
<path d="M27.547 28.3652L28.8805 29.0446L29.9389 27.9863L29.7047 29.4646L31.0383 30.1441L29.56 30.3781L29.3259 31.8566L28.6463 30.5229L27.1681 30.7571L28.2266 29.6988L27.547 28.3652Z" fill="#F0F0F0"/>
<path d="M25 34.5138L26.4234 34.0513L26.4236 32.5548L27.3031 33.7655L28.7267 33.3029L27.8469 34.5138L28.7267 35.7248L27.3031 35.2623L26.4236 36.4731V34.9765L25 34.5138Z" fill="#F0F0F0"/>
<path d="M27.547 40.6625L28.2264 39.3289L27.1681 38.2707L28.6464 38.5048L29.3259 37.1712L29.56 38.6495L31.0383 38.8835L29.7047 39.5631L29.9389 41.0415L28.8805 39.9829L27.547 40.6625Z" fill="#F0F0F0"/>
<path d="M33.6956 43.2095L33.2331 41.7859H31.7364L32.9473 40.9063L32.4848 39.4828L33.6956 40.3625L34.9066 39.4828L34.4441 40.9063L35.6549 41.7859H34.1583L33.6956 43.2095Z" fill="#F0F0F0"/>
<path d="M39.8443 40.6625L38.5107 39.9832L37.4525 41.0415L37.6866 39.5631L36.353 38.8837L37.8313 38.6495L38.0655 37.1712L38.7449 38.5048L40.2232 38.2707L39.1647 39.329L39.8443 40.6625Z" fill="#F0F0F0"/>
<path d="M42.3913 34.5138L40.9678 34.9765V36.4731L40.0881 35.2622L38.6647 35.7248L39.5445 34.5138L38.6647 33.3029L40.0881 33.7655L40.9678 32.5548V34.0513L42.3913 34.5138Z" fill="#F0F0F0"/>
<path d="M39.8443 28.3652L39.165 29.6987L40.2232 30.757L38.7449 30.5229L38.0655 31.8565L37.8313 30.378L36.353 30.1439L37.6866 29.4646L37.4525 27.9863L38.5108 29.0445L39.8443 28.3652Z" fill="#F0F0F0"/>
</g>
<defs>
<clipPath id="clip0_402_963">
<rect width="50" height="50" fill="white" transform="translate(0 0.818176)"/>
</clipPath>
</defs>
</svg>
