<svg width="50" height="50" viewBox="0 0 50 50" fill="none" xmlns="http://www.w3.org/2000/svg">
<g clip-path="url(#clip0_402_927)">
<path d="M25 50C38.8071 50 50 38.8071 50 25C50 11.1929 38.8071 0 25 0C11.1929 0 0 11.1929 0 25C0 38.8071 11.1929 50 25 50Z" fill="#F0F0F0"/>
<path d="M40.2222 5.16622C31.2719 -1.72108 18.7281 -1.72108 9.77771 5.16613L25 20.3884L40.2222 5.16622Z" fill="#D80027"/>
<path d="M24.9998 29.6117L9.77771 44.8338C18.7281 51.7211 31.2719 51.7211 40.2222 44.8338L25 29.6115L24.9998 29.6117Z" fill="#D80027"/>
<path d="M20.3884 25L5.16621 9.77771C-1.72109 18.7281 -1.72109 31.2719 5.16621 40.2222L20.3884 25Z" fill="#6DA544"/>
<path d="M29.6117 25L44.8338 40.2222C51.7211 31.2719 51.7211 18.7281 44.8338 9.77771L29.6117 25Z" fill="#6DA544"/>
<path d="M25 35.8696C31.0031 35.8696 35.8696 31.0031 35.8696 25C35.8696 18.9969 31.0031 14.1305 25 14.1305C18.9969 14.1305 14.1305 18.9969 14.1305 25C14.1305 31.0031 18.9969 35.8696 25 35.8696Z" fill="#F0F0F0"/>
<path d="M25 17.3913L25.9413 19.0218H27.824L26.8826 20.6521L27.824 22.2826H25.9413L25 23.9131L24.0587 22.2826H22.1761L23.1174 20.6521L22.1761 19.0218H24.0587L25 17.3913Z" fill="#D80027"/>
<path d="M20.2153 25L21.1566 26.6305H23.0392L22.0979 28.2608L23.0392 29.8913H21.1566L20.2153 31.5218L19.2739 29.8913H17.3913L18.3326 28.2608L17.3913 26.6305H19.2739L20.2153 25Z" fill="#D80027"/>
<path d="M29.7848 25L30.7261 26.6305H32.6087L31.6674 28.2608L32.6087 29.8913H30.7261L29.7848 31.5218L28.8434 29.8913H26.9608L27.9021 28.2608L26.9608 26.6305H28.8434L29.7848 25Z" fill="#D80027"/>
</g>
<defs>
<clipPath id="clip0_402_927">
<rect width="50" height="50" fill="white"/>
</clipPath>
</defs>
</svg>
