<svg width="50" height="50" viewBox="0 0 50 50" fill="none" xmlns="http://www.w3.org/2000/svg">
<g clip-path="url(#clip0_402_920)">
<path d="M1.18056 17.3912C0.41474 19.7906 -6.08628e-06 22.3465 9.157e-05 24.9999C-6.08628e-06 27.6532 0.41474 30.2092 1.18066 32.6086L25.0001 33.6957L48.8194 32.6086C49.5852 30.2092 50 27.6531 50 25C50 22.3467 49.5852 19.7906 48.8194 17.3912L25 16.3043L1.18056 17.3912Z" fill="#F0F0F0"/>
<path d="M50 25C50 23.5169 49.8701 22.0641 49.6224 20.652H0.377734C0.129883 22.0641 0 23.5167 0 24.9999C0 26.4831 0.12998 27.9356 0.377734 29.3477H49.6224C49.87 27.9355 50 26.483 50 25Z" fill="black"/>
<path d="M25.0001 49.9999C36.154 49.9999 45.6003 42.6949 48.8194 32.6085H1.18066C4.3999 42.6948 13.8463 49.9997 25.0001 49.9999V49.9999Z" fill="#338AF3"/>
<path d="M25.0001 0.000122074C13.8463 0.000122074 4.40001 7.3051 1.18057 17.3912L48.8192 17.3913C45.6002 7.3051 36.1538 -7.32383e-05 25.0001 0.000122074V0.000122074Z" fill="#338AF3"/>
</g>
<defs>
<clipPath id="clip0_402_920">
<rect width="50" height="50" fill="white"/>
</clipPath>
</defs>
</svg>
