<svg width="50" height="51" viewBox="0 0 50 51" fill="none" xmlns="http://www.w3.org/2000/svg">
<g clip-path="url(#clip0_402_982)">
<path d="M25 50.8182C38.8071 50.8182 50 39.6253 50 25.8182C50 12.0111 38.8071 0.818176 25 0.818176C11.1929 0.818176 0 12.0111 0 25.8182C0 39.6253 11.1929 50.8182 25 50.8182Z" fill="#338AF3"/>
<path d="M39.1304 26.09H10.8695C10.8695 28.041 12.5688 29.6226 14.5197 29.6226H14.4021C14.4021 31.5737 15.9837 33.1552 17.9347 33.1552C17.9347 35.1063 19.5163 36.6878 21.4674 36.6878H28.5326C30.4837 36.6878 32.0652 35.1063 32.0652 33.1552C34.0163 33.1552 35.5978 31.5737 35.5978 29.6226H35.4802C37.4309 29.6226 39.1304 28.041 39.1304 26.09V26.09Z" fill="#FFDA44"/>
<path d="M34.7826 21.4703C34.7826 26.8731 30.4028 31.253 25 31.253C19.5972 31.253 15.2174 26.8731 15.2174 21.4703" fill="#338AF3"/>
<path d="M32.4722 21.4703L29.4189 22.9066L31.0448 25.8636L27.7294 25.2293L27.3093 28.5786L25 26.1152L22.6906 28.5786L22.2706 25.2293L18.9552 25.8634L20.581 22.9065L17.5278 21.4703L20.5811 20.0342L18.9552 17.0773L22.2705 17.7115L22.6907 14.3622L25 16.8256L27.3094 14.3622L27.7294 17.7115L31.0449 17.0773L29.419 20.0343L32.4722 21.4703Z" fill="#FFDA44"/>
</g>
<defs>
<clipPath id="clip0_402_982">
<rect width="50" height="50" fill="white" transform="translate(0 0.818176)"/>
</clipPath>
</defs>
</svg>
